<svg width="500" height="500" viewBox="0 0 500 500" fill="none" xmlns="http://www.w3.org/2000/svg">
<path d="M62.5 62.5H125V125H62.5V62.5Z" fill="black"/>
<path d="M187.5 0V187.5H0V0H187.5ZM156.25 31.25H31.25V156.25H156.25V31.25ZM125 375H62.5V437.5H125V375Z" fill="black"/>
<path d="M187.5 312.5V500H0V312.5H187.5ZM31.25 343.75V468.75H156.25V343.75H31.25ZM375 62.5H437.5V125H375V62.5Z" fill="black"/>
<path d="M312.5 0V187.5H500V0H312.5ZM468.75 31.25V156.25H343.75V31.25H468.75ZM250 31.25V0H281.25V62.5H250V125H218.75V31.25H250ZM250 187.5V125H281.25V187.5H250ZM187.5 250V218.75H218.75V187.5H250V250H281.25V218.75H437.5V250H312.5V281.25H218.75V250H187.5ZM187.5 250V281.25H62.5V250H31.25V281.25H0V218.75H93.75V250H187.5ZM500 281.25H468.75V218.75H500V281.25ZM468.75 281.25H437.5V343.75H500V312.5H468.75V281.25ZM343.75 281.25H406.25V312.5H375V343.75H343.75V281.25ZM406.25 375V343.75H375V375H343.75V406.25H281.25V437.5H375V375H406.25ZM406.25 375H500V406.25H437.5V437.5H406.25V375ZM281.25 343.75V375H312.5V312.5H218.75V343.75H281.25Z" fill="black"/>
<path d="M218.75 375H250V468.75H375V500H218.75V375ZM500 437.5V500H406.25V468.75H468.75V437.5H500Z" fill="black"/>
</svg>
